<svg width="1414" height="213" viewBox="0 0 1414 213" fill="none" xmlns="http://www.w3.org/2000/svg">
<g opacity="0.12">
<path d="M72.1384 192.826L453.982 88.0644L616.557 134.686L937.25 87.0179L1307.17 181.301" stroke="#263238" stroke-linecap="round" stroke-linejoin="round"/>
<path d="M369.477 111.186L401.907 107.59L418.123 113.286L448.859 105.788L461.666 108.789L479.575 102.49L525.659 117.181L533.343 111.484" stroke="#263238" stroke-linecap="round" stroke-linejoin="round"/>
<path d="M803.052 107.285L855.105 104.292L862.789 112.081L889.25 106.987L906.312 113.882L960.948 103.391L988.255 108.789L1001.91 104.292" stroke="#263238" stroke-linecap="round" stroke-linejoin="round"/>
<path d="M116.024 19.7449C114.007 19.0826 110.559 18.4202 104.549 18.3871C91.0561 18.2811 94.6662 21.4206 91.0561 22.1757C87.446 22.9307 86.4376 21.7452 82.8073 22.5002C79.177 23.2553 80.7905 24.772 77.8661 24.9906C74.9417 25.2092 70.9484 24.017 67.3182 24.772C63.6879 25.5271 63.7081 26.1762 62.0543 26.1762C60.4005 26.1762 57.1131 25.7457 55.1366 26.1762C53.1602 26.6067 50.8408 27.1498 50.8408 27.1498H86.256" stroke="#263238" stroke-linecap="round" stroke-linejoin="round"/>
<path d="M119.775 21.6789L118.747 21.5266C118.586 21.1236 118.174 20.7357 117.537 20.3874" stroke="#263238" stroke-linecap="round" stroke-linejoin="round"/>
<path d="M90.7737 27.15H134.175C134.408 26.8203 134.268 26.4741 133.782 26.1757C133.297 25.8772 132.497 25.6468 131.533 25.5273C127.903 24.8649 126.27 25.4213 124.938 24.8649C123.607 24.3086 127.56 23.2157 121.429 21.9705" stroke="#263238" stroke-linecap="round" stroke-linejoin="round"/>
<path d="M318.452 27.1499H404.61C404.61 27.1499 407.554 24.2621 396.785 22.3347C386.015 20.4073 381.134 22.0101 377.222 20.4007C373.309 18.7912 387.971 14.6185 358.626 10.4656C358.626 10.4656 356.61 1.47111 316.536 1.14656C299.231 1.00747 291.386 2.66331 287.211 4.77616" stroke="#263238" stroke-linecap="round" stroke-linejoin="round"/>
<path d="M292.152 27.1499H306.512" stroke="#263238" stroke-linecap="round" stroke-linejoin="round"/>
<path d="M267.063 27.1497H157.026C157.026 27.1497 163.883 25.5469 169.752 24.2619C175.621 22.977 185.403 24.2619 190.303 24.2619C195.204 24.2619 195.184 22.3345 205.954 20.0826C216.724 17.8306 228.461 21.3675 237.275 20.7449C246.088 20.1223 241.188 15.6052 251.957 13.3533C262.727 11.1013 265.652 14.6382 276.421 12.3862C279.426 11.7239 280.757 10.5781 281.988 9.20703" stroke="#263238" stroke-linecap="round" stroke-linejoin="round"/>
<path d="M1113.88 27.1501H1167.23C1167.23 27.1501 1169.06 25.3618 1162.39 24.1696C1155.71 22.9774 1152.69 23.9709 1150.29 22.9708C1147.89 21.9707 1156.96 19.3942 1138.77 16.8044C1138.77 16.8044 1137.56 11.2342 1112.71 11.0355C1102 10.9494 1097.14 11.976 1094.56 13.2808" stroke="#263238" stroke-linecap="round" stroke-linejoin="round"/>
<path d="M1097.61 27.1499H1106.48" stroke="#263238" stroke-linecap="round" stroke-linejoin="round"/>
<path d="M1091.29 16.0025C1090.93 16.7802 1089.71 17.487 1087.87 17.9895C1081.19 19.387 1079.37 17.1947 1072.7 18.5856C1066.02 19.9765 1069.07 22.7649 1063.62 23.1689C1058.18 23.573 1050.9 21.374 1044.22 22.7649C1037.55 24.1558 1037.57 25.3547 1034.54 25.3547C1031.52 25.3547 1025.45 24.5599 1021.82 25.3547C1018.18 26.1495 1013.93 27.143 1013.93 27.143H1082.08" stroke="#263238" stroke-linecap="round" stroke-linejoin="round"/>
<path d="M834.897 82.0375H888.241C888.241 82.0375 890.057 80.2492 883.401 79.057C876.746 77.8648 873.7 78.8583 871.3 77.8582C868.9 76.8581 877.956 74.275 859.784 71.6918C859.784 71.6918 858.574 66.1216 833.727 65.9229C823.018 65.8368 818.157 66.8634 815.576 68.1682" stroke="#263238" stroke-linecap="round" stroke-linejoin="round"/>
<path d="M818.621 82.0379H827.495" stroke="#263238" stroke-linecap="round" stroke-linejoin="round"/>
<path d="M812.309 70.9171C811.931 71.6949 810.706 72.4012 808.86 72.9041C802.204 74.295 800.389 72.1093 793.714 73.5002C787.038 74.8911 790.083 77.6796 784.618 78.077C779.152 78.4744 771.912 76.2887 765.236 77.6796C758.561 79.0705 758.581 80.2693 755.535 80.2693C752.49 80.2693 746.46 79.4745 742.809 80.2693C739.159 81.0641 734.944 82.0576 734.944 82.0576H803.072" stroke="#263238" stroke-linecap="round" stroke-linejoin="round"/>
<path d="M392.892 213.379H402.654V200.443C402.851 198.017 405.924 195.713 411.218 194.02C416.513 192.327 423.61 191.379 431 191.379C438.39 191.379 445.487 192.327 450.782 194.02C456.076 195.713 459.149 198.017 459.346 200.443V213.379H469.108V200.443C468.879 197.174 464.763 194.064 457.641 191.778C450.52 189.493 440.958 188.213 431 188.213C421.042 188.213 411.48 189.493 404.358 191.778C397.237 194.064 393.121 197.174 392.892 200.443V213.379Z" fill="#BDBDBD" stroke="#263238" stroke-miterlimit="10"/>
<path d="M309.84 207.683H373.732L373.732 55.1401H309.84L309.84 207.683Z" fill="#919191" stroke="#263238" stroke-miterlimit="10"/>
<path d="M309.84 207.683H337.793L337.793 55.1401H309.84L309.84 207.683Z" fill="white" stroke="#263238" stroke-miterlimit="10"/>
<path d="M309.84 65.8961H373.732V53.8218H309.84V65.8961Z" fill="#263238" stroke="#263238" stroke-miterlimit="10"/>
<path d="M309.84 65.8961H337.793V53.8218H309.84V65.8961Z" fill="#263238" stroke="#263238" stroke-miterlimit="10"/>
<path d="M297.235 207.934H309.921L309.921 129.938H297.235V207.934Z" fill="#BDBDBD" stroke="#263238" stroke-miterlimit="10"/>
<path d="M273.215 207.934H303.245L303.245 129.938H273.215V207.934Z" fill="white" stroke="#263238" stroke-miterlimit="10"/>
<path d="M225.94 207.934H300.643V154.769H225.94V207.934Z" fill="#FAF6D9" stroke="#263238" stroke-linecap="round" stroke-linejoin="round"/>
<path d="M225.94 187.415H300.643V154.768H225.94V187.415Z" fill="#263238" stroke="#263238" stroke-miterlimit="10"/>
<path d="M225.94 166.267H300.643V154.762H225.94V166.267Z" fill="#BDBDBD" stroke="#263238" stroke-miterlimit="10"/>
<path d="M225.94 171.387H300.643V166.161H225.94V171.387Z" fill="white" stroke="#263238" stroke-miterlimit="10"/>
<path d="M215.251 207.934H227.937L227.937 129.938H215.251L215.251 207.934Z" fill="#BDBDBD" stroke="#263238" stroke-miterlimit="10"/>
<path d="M191.231 207.934H221.262L221.262 129.938H191.231L191.231 207.934Z" fill="white" stroke="#263238" stroke-miterlimit="10"/>
<path d="M179.655 131.15H319.238V126.394H179.655V131.15Z" fill="#FAF6D9" stroke="#263238" stroke-linecap="round" stroke-linejoin="round"/>
<path d="M179.655 131.15H214.041V126.394H179.655V131.15Z" fill="#FAF6D9" stroke="#263238" stroke-linecap="round" stroke-linejoin="round"/>
<path d="M179.655 207.941H319.238V206.55H179.655V207.941Z" fill="white" stroke="#263238" stroke-miterlimit="10"/>
<path d="M179.655 207.941H214.041V206.55H179.655V207.941Z" fill="white" stroke="#263238" stroke-miterlimit="10"/>
<path d="M248.811 163.293H280.999V156.352H248.811V163.293Z" fill="#263238" stroke="#263238" stroke-miterlimit="10"/>
<path d="M255.709 161.809H274.102V157.842H255.709V161.809Z" fill="white" stroke="#263238" stroke-miterlimit="10"/>
<path d="M248.811 157.186H280.999V156.358H248.811V157.186Z" fill="white" stroke="#263238" stroke-miterlimit="10"/>
<path d="M271.964 169.903H292.092V167.095H271.964V169.903Z" fill="white" stroke="#263238" stroke-miterlimit="10"/>
<path d="M271.964 168.42H292.092V167.095H271.964V168.42Z" fill="white" stroke="#263238" stroke-miterlimit="10"/>
<path d="M236.226 169.903H256.354V167.095H236.226V169.903Z" fill="white" stroke="#263238" stroke-miterlimit="10"/>
<path d="M236.226 168.42H256.354V167.095H236.226V168.42Z" fill="white" stroke="#263238" stroke-miterlimit="10"/>
<path d="M198.532 177.368H214.041V158.809H198.532V177.368Z" fill="white" stroke="#263238" stroke-miterlimit="10"/>
<path d="M198.552 177.368H210.088V158.809H198.552V177.368Z" fill="white" stroke="#263238" stroke-miterlimit="10"/>
<path d="M200.993 176.533H207.628V159.65H200.993V176.533Z" fill="white" stroke="#263238" stroke-miterlimit="10"/>
<path d="M216.401 171.466H220.677V169.307H216.401V171.466Z" fill="white" stroke="#263238" stroke-miterlimit="10"/>
<path d="M159.648 213.365L536.106 213.365V207.789L159.648 207.789V213.365Z" fill="#919191" stroke="#263238" stroke-miterlimit="10"/>
<path d="M159.628 213.365H206.034V207.789H159.628V213.365Z" fill="#BDBDBD" stroke="#263238" stroke-miterlimit="10"/>
<path d="M981.398 213.379H991.159V200.443C991.159 197.975 994.145 195.608 999.459 193.863C1004.77 192.118 1011.98 191.137 1019.5 191.137C1027.01 191.137 1034.22 192.118 1039.53 193.863C1044.85 195.608 1047.83 197.975 1047.83 200.443V213.379H1057.59V200.443C1057.59 197.125 1053.58 193.943 1046.43 191.596C1039.29 189.25 1029.6 187.932 1019.5 187.932C1009.39 187.932 999.701 189.25 992.556 191.596C985.412 193.943 981.398 197.125 981.398 200.443V213.379Z" fill="#BDBDBD" stroke="#263238" stroke-miterlimit="10"/>
<path d="M898.326 207.683H962.218L962.218 55.1401H898.326V207.683Z" fill="#919191" stroke="#263238" stroke-miterlimit="10"/>
<path d="M898.326 207.683H926.279L926.279 55.1401H898.326V207.683Z" fill="white" stroke="#263238" stroke-miterlimit="10"/>
<path d="M898.326 67.2143H962.218V55.1399H898.326V67.2143Z" fill="#263238" stroke="#263238" stroke-miterlimit="10"/>
<path d="M898.326 67.2143H926.279V55.1399H898.326V67.2143Z" fill="#263238" stroke="#263238" stroke-miterlimit="10"/>
<path d="M885.721 207.934H898.406V129.938H885.721V207.934Z" fill="#BDBDBD" stroke="#263238" stroke-miterlimit="10"/>
<path d="M861.7 207.934H891.731V129.938H861.7V207.934Z" fill="white" stroke="#263238" stroke-miterlimit="10"/>
<path d="M814.426 207.934H889.129V154.769H814.426V207.934Z" fill="#FAF6D9" stroke="#263238" stroke-linecap="round" stroke-linejoin="round"/>
<path d="M814.426 187.415H889.129V154.768H814.426V187.415Z" fill="#263238" stroke="#263238" stroke-miterlimit="10"/>
<path d="M814.426 166.267H889.129V154.762H814.426V166.267Z" fill="#BDBDBD" stroke="#263238" stroke-miterlimit="10"/>
<path d="M814.426 171.387H889.129V166.161H814.426V171.387Z" fill="white" stroke="#263238" stroke-miterlimit="10"/>
<path d="M803.737 207.934H816.423V129.938H803.737V207.934Z" fill="#BDBDBD" stroke="#263238" stroke-miterlimit="10"/>
<path d="M779.717 207.934H809.747V129.938H779.717V207.934Z" fill="white" stroke="#263238" stroke-miterlimit="10"/>
<path d="M768.14 131.15H907.724V126.394H768.14V131.15Z" fill="#FAF6D9" stroke="#263238" stroke-linecap="round" stroke-linejoin="round"/>
<path d="M768.14 131.15H802.527V126.394H768.14V131.15Z" fill="#FAF6D9" stroke="#263238" stroke-linecap="round" stroke-linejoin="round"/>
<path d="M768.14 207.941H907.724V206.55H768.14V207.941Z" fill="white" stroke="#263238" stroke-miterlimit="10"/>
<path d="M768.14 207.941H802.527V206.55H768.14V207.941Z" fill="white" stroke="#263238" stroke-miterlimit="10"/>
<path d="M837.317 163.293H869.505V156.352H837.317V163.293Z" fill="#263238" stroke="#263238" stroke-miterlimit="10"/>
<path d="M844.214 161.809H862.608V157.842H844.214V161.809Z" fill="white" stroke="#263238" stroke-miterlimit="10"/>
<path d="M837.317 157.186H869.505V156.358H837.317V157.186Z" fill="white" stroke="#263238" stroke-miterlimit="10"/>
<path d="M860.43 169.903H880.557V167.095H860.43V169.903Z" fill="white" stroke="#263238" stroke-miterlimit="10"/>
<path d="M860.43 168.42H880.557V167.095H860.43V168.42Z" fill="white" stroke="#263238" stroke-miterlimit="10"/>
<path d="M824.712 169.903H844.84V167.095H824.712V169.903Z" fill="white" stroke="#263238" stroke-miterlimit="10"/>
<path d="M824.712 168.42H844.84V167.095H824.712V168.42Z" fill="white" stroke="#263238" stroke-miterlimit="10"/>
<path d="M787.018 177.368H802.527V158.809H787.018V177.368Z" fill="white" stroke="#263238" stroke-miterlimit="10"/>
<path d="M787.038 177.368H798.574V158.809H787.038V177.368Z" fill="white" stroke="#263238" stroke-miterlimit="10"/>
<path d="M789.478 176.533H796.114V159.65H789.478V176.533Z" fill="white" stroke="#263238" stroke-miterlimit="10"/>
<path d="M795.529 159.676C788.389 161.18 784.335 165.094 784.154 165.273L786.695 165.551C786.695 165.512 790.043 162.312 795.529 160.769V159.676Z" fill="white" stroke="#263238" stroke-miterlimit="10"/>
<path d="M793.008 161.895C793.068 161.894 793.127 161.89 793.181 161.881C793.235 161.872 793.284 161.86 793.323 161.846C793.363 161.831 793.393 161.813 793.411 161.795C793.43 161.776 793.437 161.756 793.431 161.736L793.189 160.339C793.187 160.32 793.173 160.301 793.148 160.283C793.123 160.266 793.088 160.25 793.045 160.238C793.002 160.225 792.952 160.215 792.897 160.208C792.842 160.202 792.784 160.199 792.725 160.2C792.667 160.2 792.61 160.205 792.557 160.213C792.504 160.221 792.457 160.233 792.417 160.247C792.378 160.261 792.348 160.278 792.328 160.296C792.308 160.314 792.299 160.333 792.302 160.352L792.544 161.756C792.544 161.776 792.556 161.795 792.579 161.813C792.603 161.83 792.638 161.846 792.682 161.859C792.725 161.873 792.777 161.883 792.833 161.889C792.889 161.895 792.949 161.897 793.008 161.895Z" fill="white" stroke="#263238" stroke-width="0.5" stroke-miterlimit="10"/>
<path d="M789.922 163.14C789.98 163.14 790.038 163.136 790.092 163.129C790.145 163.122 790.194 163.111 790.236 163.098C790.277 163.084 790.31 163.068 790.332 163.05C790.354 163.033 790.366 163.014 790.366 162.995V161.59C790.366 161.571 790.354 161.552 790.332 161.535C790.31 161.517 790.277 161.501 790.236 161.487C790.194 161.474 790.145 161.463 790.092 161.456C790.038 161.448 789.98 161.445 789.922 161.445C789.864 161.445 789.806 161.448 789.752 161.456C789.698 161.463 789.649 161.474 789.608 161.487C789.567 161.501 789.534 161.517 789.512 161.535C789.49 161.552 789.478 161.571 789.478 161.59V162.995C789.478 163.014 789.49 163.033 789.512 163.05C789.534 163.068 789.567 163.084 789.608 163.098C789.649 163.111 789.698 163.122 789.752 163.129C789.806 163.136 789.864 163.14 789.922 163.14Z" fill="white" stroke="#263238" stroke-width="0.5" stroke-miterlimit="10"/>
<path d="M787.784 164.697C787.9 164.689 788.002 164.666 788.07 164.634C788.138 164.602 788.165 164.563 788.147 164.525L787.179 163.041C787.17 163.022 787.148 163.004 787.116 162.987C787.084 162.971 787.042 162.957 786.993 162.947C786.943 162.936 786.888 162.929 786.83 162.926C786.771 162.923 786.712 162.923 786.655 162.928C786.54 162.936 786.439 162.959 786.375 162.991C786.311 163.023 786.288 163.063 786.312 163.101L787.26 164.584C787.288 164.621 787.358 164.653 787.455 164.674C787.552 164.695 787.67 164.703 787.784 164.697Z" fill="white" stroke="#263238" stroke-width="0.5" stroke-miterlimit="10"/>
<path d="M786.594 169.386C786.594 169.386 785.404 173.129 785.646 173.44C785.888 173.751 791.112 174.142 791.112 174.142" stroke="#263238" stroke-miterlimit="10"/>
<path d="M780.12 175.857L788.651 175.195C789.72 175.105 790.657 174.893 791.293 174.597C791.928 174.3 792.222 173.94 792.12 173.579L790.85 169.558L788.167 169.651L789.458 173.671C789.477 173.818 789.347 173.963 789.088 174.083C788.828 174.203 788.455 174.291 788.026 174.334L779.495 174.996L780.12 175.857Z" fill="black"/>
<path d="M783.397 175.272L779.85 175.405L780.628 177.643L784.174 177.51L783.397 175.272Z" fill="black" stroke="#263238" stroke-miterlimit="10"/>
<path d="M781.316 169.297L777.77 169.43L779.848 175.412L783.395 175.279L781.316 169.297Z" fill="white" stroke="#263238" stroke-miterlimit="10"/>
<path d="M783.67 164.617L788.954 165.412L788.288 166.346L792.241 167.214L791.152 169.591L777.74 170.751L774.675 169.591L777.075 165.697L782.137 165.412L783.67 164.617Z" fill="white" stroke="#263238" stroke-miterlimit="10"/>
<path d="M779.717 166.273L785.424 165.915L786.715 165.074L783.67 164.617L782.137 165.412L777.075 165.697L774.675 169.591L777.095 170.505L779.717 166.273Z" fill="white" stroke="#263238" stroke-miterlimit="10"/>
<path d="M771.589 141.469C774.11 134.23 782.177 132.693 788.591 132.693H788.793C790.817 132.698 792.816 132.843 794.658 133.119C796.5 133.396 798.144 133.797 799.482 134.296C810.372 138.151 808.86 147.814 808.759 148.443V170.479C808.786 170.566 808.758 170.654 808.676 170.736C808.593 170.819 808.459 170.896 808.281 170.96C808.103 171.025 807.886 171.077 807.644 171.112C807.401 171.148 807.139 171.166 806.873 171.166C806.608 171.166 806.345 171.148 806.103 171.112C805.86 171.077 805.643 171.025 805.465 170.96C805.288 170.896 805.153 170.819 805.071 170.736C804.989 170.654 804.96 170.566 804.988 170.479V148.39C804.988 148.291 806.662 138.654 796.719 135.144C795.716 134.764 794.477 134.46 793.085 134.252C791.693 134.044 790.181 133.937 788.651 133.938H788.53C779.777 133.938 776.429 138.104 775.24 141.615C774.074 145.091 774.66 148.606 776.974 152.02L779.838 156.345V162.174L773.283 152.285C770.9 148.735 770.328 145.08 771.589 141.469Z" fill="#263238"/>
<path d="M804.887 171.466H809.162V169.307H804.887V171.466Z" fill="white" stroke="#263238" stroke-miterlimit="10"/>
<path d="M772.88 195.416C776.914 192.846 781.653 189.932 781.653 186.461C781.653 181.162 780.342 176.857 780.342 176.811L784.093 176.692C784.093 176.731 785.424 181.096 785.424 186.461C785.424 190.243 780.302 193.429 776.208 195.992C772.981 198.012 770.157 199.761 771.307 200.96C771.489 201.254 771.873 201.531 772.428 201.769C772.984 202.008 773.697 202.202 774.514 202.337C776.345 202.512 778.309 202.455 780.019 202.178V203.503C778.844 203.625 777.621 203.689 776.389 203.695C775.271 203.699 774.162 203.631 773.122 203.496C771.775 203.298 770.587 202.999 769.649 202.625C768.711 202.25 768.05 201.81 767.717 201.337C766.103 199.642 769.25 197.681 772.88 195.416Z" fill="black"/>
<path d="M660.301 213.365L1036.76 213.365V207.789L660.301 207.789V213.365Z" fill="#919191" stroke="#263238" stroke-miterlimit="10"/>
<path d="M660.301 213.365H706.708V207.789H660.301V213.365Z" fill="#BDBDBD" stroke="#263238" stroke-miterlimit="10"/>
<path d="M1114 34.5944H377.907V59.942H1114V34.5944Z" fill="#263238" stroke="#263238" stroke-miterlimit="10"/>
<path d="M99.7486 59.942L705.014 59.942V34.5944L99.7486 34.5944V59.942Z" fill="#FAF6D9" stroke="#263238" stroke-linecap="round" stroke-linejoin="round"/>
<path d="M704.933 59.9419V35.6938L533.767 49.7817C509.685 51.7668 484.323 51.2555 461.161 48.3179L423.729 43.5822C406.484 41.3985 387.658 40.9376 369.618 42.2576L127.601 59.9221L704.933 59.9419Z" fill="#919191" stroke="#263238" stroke-miterlimit="10"/>
<path d="M393.78 207.954C393.78 207.954 389.605 210.822 390.351 211.418C391.097 212.014 395.958 211.988 395.958 211.988L396.16 208.08C396.16 208.08 395.071 207.04 393.78 207.954Z" fill="white" stroke="#263238" stroke-linecap="round" stroke-linejoin="round"/>
<path d="M405.215 210.067C405.215 210.067 410.479 211.133 411.971 211.391C413.464 211.65 419.756 212.087 419.877 212.524C419.998 212.961 413.827 213.246 410.66 213.392C404.771 213.335 398.916 213.073 393.195 212.61C392.57 212.451 394.909 209.828 394.909 209.828L405.215 210.067Z" fill="white" stroke="#263238" stroke-linecap="round" stroke-linejoin="round"/>
<path d="M425.847 172.526C425.847 172.526 423.104 187.952 423.306 189.978C423.508 192.005 421.289 193.409 421.108 193.985C420.926 194.562 406.203 206.51 406.203 206.51L403.4 209.266L397.652 206.378L403.702 192.846L397.652 172.87L413 172.208L425.847 172.526Z" fill="#525252" stroke="#263238" stroke-linecap="round" stroke-linejoin="round"/>
<path d="M377.686 172.976C377.686 172.976 381.074 179.646 384.623 182.481C388.173 185.316 392.691 192.952 392.691 192.952C392.691 192.952 389.867 196.794 391.723 198.357C393.578 199.92 393.739 208.464 393.739 208.464C393.518 208.964 393.411 209.469 393.417 209.975C393.558 210.273 393.679 210.776 393.679 210.776C393.679 210.776 398.136 210.524 399.729 210.485C401.323 210.445 406.627 210.147 406.627 210.147C406.627 210.147 406.869 209.067 407.232 208.425C407.595 207.782 406.284 206.736 406.324 206.517C406.365 206.299 408.523 200.636 408.523 200.636C408.523 200.636 411.75 192.966 412.072 191.528C412.395 190.091 407.393 174.765 407.393 174.765C407.393 174.765 393.518 171.758 388.274 171.559C383.03 171.36 377.686 172.976 377.686 172.976Z" fill="#525252" stroke="#263238" stroke-linecap="round" stroke-linejoin="round"/>
<path d="M393.477 145.542C393.477 145.542 374.136 149.105 374.055 149.45C373.975 149.794 377.907 163.584 377.907 163.584C377.907 163.584 375.487 171.446 375.306 172.3C375.21 172.914 375.251 173.53 375.427 174.142L386.479 172.453C386.479 172.453 405.981 175.274 408.664 175.453L413.847 175.804L416.469 174.254L416.731 176.241C418.981 175.691 421.055 175.068 422.923 174.38L427.158 172.585L425.262 163.803C425.262 163.803 423.245 152.298 423.467 151.669C423.689 151.039 421.148 147.642 419.434 147.191C416.36 146.671 413.171 146.228 409.894 145.867L396.361 144.979L393.477 145.542Z" fill="white" stroke="#263238" stroke-linecap="round" stroke-linejoin="round"/>
<path d="M390.613 138.687C391.033 139.313 391.711 139.916 392.63 140.482C393.739 140.985 396.825 142.469 396.825 142.469L403.682 141.144L402.412 137.21L390.613 138.687Z" fill="#263238" stroke="#263238" stroke-linecap="round" stroke-linejoin="round"/>
<path d="M395.776 140.654L394.627 144.694L408.402 147.682L410.822 144.635L399.265 139.932L395.776 140.654Z" fill="white" stroke="#263238" stroke-linecap="round" stroke-linejoin="round"/>
<path d="M403.944 143.913L408.946 146.184L410.277 144.986L403.944 143.913Z" fill="#263238"/>
<path d="M420.16 136.462L419.776 138.978L418.768 139.588L418.95 141.952L417.639 142.323C417.639 142.323 415.622 144.31 415.239 144.509C414.29 144.815 413.226 145.08 412.072 145.297C411.366 145.39 404.307 144.072 403.198 143.529C402.089 142.986 400.839 142.323 400.839 142.323L401.06 140.548L400.556 137.237L420.16 136.462Z" fill="white" stroke="#263238" stroke-linecap="round" stroke-linejoin="round"/>
<path d="M414.17 139.767V140.429C413.698 140.504 413.173 140.535 412.651 140.52C412.129 140.505 411.63 140.444 411.205 140.343" stroke="#263238" stroke-linecap="round" stroke-linejoin="round"/>
<path d="M415.097 143.204C415.097 143.204 414.432 143.251 412.96 142.939" stroke="#263238" stroke-linecap="round" stroke-linejoin="round"/>
<path d="M409.713 137.866L419.696 138.051L420.16 136.462L408.745 137.488L409.713 137.866Z" fill="#263238"/>
<path d="M415.824 139.462L410.257 139.27" stroke="#263238" stroke-linecap="round" stroke-linejoin="round"/>
<path d="M417.639 142.323L413.948 142.409" stroke="#263238" stroke-linecap="round" stroke-linejoin="round"/>
<path d="M421.37 136.342C421.37 136.342 420.301 133.965 417.84 133.216C415.38 132.468 402.533 131.858 401.262 132.057C399.992 132.256 397.713 132.633 397.713 132.633C396.147 132.92 394.668 133.255 393.296 133.633C392.273 133.875 391.433 134.191 390.839 134.556C390.244 134.921 389.912 135.326 389.867 135.74C389.848 136.727 390.098 137.714 390.613 138.687L421.37 136.342Z" fill="#FAF6D9" stroke="#263238" stroke-linecap="round" stroke-linejoin="round"/>
<path d="M393.78 143.363L405.296 145.078L408.845 148.092L391.561 145.436L393.78 143.363Z" fill="white" stroke="#263238" stroke-linecap="round" stroke-linejoin="round"/>
<path d="M401.686 139.972C401.686 139.972 400.375 138.303 397.652 138.879C394.929 139.455 398.096 141.277 398.539 141.528C398.983 141.78 400.556 141.82 401.423 141.237" fill="white"/>
<path d="M401.686 139.972C401.686 139.972 400.375 138.303 397.652 138.879C394.929 139.455 398.096 141.277 398.539 141.528C398.983 141.78 400.556 141.82 401.423 141.237" stroke="#263238" stroke-linecap="round" stroke-linejoin="round"/>
<path d="M404.792 137.574C404.792 137.574 411.346 138.621 416.066 138.521C421.39 138.402 432.482 137.978 429.78 137.283C426.633 136.938 423.419 136.664 420.16 136.462C420.16 136.462 408.765 136.991 404.792 137.574Z" fill="#FAF6D9" stroke="#263238" stroke-linecap="round" stroke-linejoin="round"/>
<path d="M478.446 169.466C472.193 167.578 459.629 167.3 459.064 167.287L458.903 168.167C459.024 168.167 469.289 168.393 475.239 169.744L478.446 169.466Z" fill="white" stroke="#263238" stroke-miterlimit="10"/>
<path d="M471.286 169.227C471.304 169.245 471.333 169.262 471.371 169.277C471.41 169.292 471.457 169.304 471.509 169.312C471.562 169.321 471.619 169.326 471.678 169.327C471.736 169.329 471.795 169.326 471.85 169.32L475.884 168.889C475.994 168.876 476.084 168.849 476.136 168.815C476.189 168.78 476.199 168.741 476.166 168.704C476.129 168.667 476.05 168.636 475.945 168.617C475.84 168.599 475.717 168.594 475.602 168.605L471.568 169.042C471.458 169.055 471.368 169.082 471.316 169.116C471.264 169.151 471.253 169.19 471.286 169.227Z" fill="white" stroke="#263238" stroke-width="0.5" stroke-miterlimit="10"/>
<path d="M466.809 168.565C466.842 168.602 466.916 168.634 467.017 168.653C467.118 168.673 467.238 168.68 467.353 168.671L471.488 168.314C471.6 168.303 471.696 168.278 471.756 168.245C471.816 168.212 471.835 168.172 471.81 168.135C471.796 168.116 471.771 168.098 471.736 168.083C471.701 168.067 471.656 168.054 471.606 168.044C471.555 168.034 471.499 168.028 471.44 168.025C471.382 168.023 471.323 168.024 471.266 168.029L467.232 168.386C467.167 168.388 467.104 168.394 467.047 168.404C466.989 168.414 466.939 168.428 466.899 168.445C466.859 168.462 466.83 168.481 466.815 168.502C466.799 168.523 466.797 168.544 466.809 168.565Z" fill="white" stroke="#263238" stroke-width="0.5" stroke-miterlimit="10"/>
<path d="M461.686 168.287C461.686 168.287 461.686 168.287 461.686 168.32C461.713 168.337 461.751 168.352 461.796 168.364C461.842 168.377 461.894 168.386 461.95 168.391C462.007 168.397 462.066 168.399 462.124 168.397C462.183 168.395 462.239 168.389 462.291 168.38L466.324 167.717C466.431 167.7 466.513 167.669 466.551 167.632C466.588 167.594 466.58 167.554 466.526 167.519C466.473 167.484 466.379 167.457 466.265 167.444C466.152 167.432 466.028 167.435 465.921 167.452L461.887 168.115C461.798 168.131 461.73 168.158 461.693 168.189C461.656 168.22 461.654 168.255 461.686 168.287Z" fill="white" stroke="#263238" stroke-width="0.5" stroke-miterlimit="10"/>
<path d="M447.588 169.114C447.588 169.114 436.274 169.697 435.487 169.856C434.701 170.015 434.822 171.764 434.822 171.764" stroke="#263238" stroke-miterlimit="10"/>
<path d="M426.876 168.717L431.05 171.254C431.595 171.568 432.464 171.808 433.5 171.929C434.536 172.051 435.671 172.046 436.697 171.917L448.193 170.479L447.245 169.658L435.75 171.089C435.323 171.143 434.851 171.144 434.421 171.093C433.992 171.042 433.632 170.942 433.41 170.81L429.235 168.274L426.876 168.717Z" fill="black"/>
<path d="M428.017 168.532L421.631 169.352L422.932 170.444L429.317 169.623L428.017 168.532Z" fill="black" stroke="#263238" stroke-miterlimit="10"/>
<path d="M445.105 166.331L428.033 168.525L429.334 169.617L446.406 167.423L445.105 166.331Z" fill="white" stroke="#263238" stroke-miterlimit="10"/>
<path d="M460.879 166.962L459.891 168.843L456.967 168.876L455.434 170.353L448.133 170.612L441.296 166.657L443.918 165.386L455.998 165.147L458.136 166.677L460.879 166.962Z" fill="#FAF6D9" stroke="#263238" stroke-linecap="round" stroke-linejoin="round"/>
<path d="M454.97 166.134L457.491 167.856L460.314 168.048L460.879 166.962L458.136 166.677L455.998 165.147L443.918 165.386L441.84 166.393L454.97 166.134Z" fill="#FAF6D9" stroke="#263238" stroke-linecap="round" stroke-linejoin="round"/>
<path d="M387.407 161.008L391.541 163.041L428.731 168.604L434.923 170.505L441.114 169.823L446.499 169.552L439.884 165.889L426.674 165.756L401.887 160.464L398.156 158.968L387.407 161.008Z" fill="white" stroke="#263238" stroke-linecap="round" stroke-linejoin="round"/>
<path d="M374.055 149.45L382.869 162.77L402.291 159.379L389.484 149.881" fill="white"/>
<path d="M374.055 149.45L382.869 162.77L402.291 159.379L389.484 149.881" stroke="#263238" stroke-linecap="round" stroke-linejoin="round"/>
<path d="M421.672 169.333C405.339 170.647 390.49 173.467 378.875 177.46C362.277 183.421 345.356 189.27 327.79 194.919C307.743 201.364 291.709 205.676 265.692 209.431C247.178 212.08 219.789 214.73 200.105 212.08C175.258 208.689 181.732 197.131 181.208 190.157C180.159 176.288 180.179 162.379 181.47 148.516C181.631 146.807 181.813 145.098 182.115 143.396C182.559 140.826 183.164 135.793 186.431 133.461C188.972 131.646 194.498 130.699 197.967 130.746C209.786 130.904 213.275 135.428 214.546 139.429C215.816 143.429 217.994 167.777 217.994 167.777" stroke="#263238" stroke-width="3" stroke-linejoin="round"/>
<path d="M364.536 167.777H363.669C362.792 167.777 361.928 167.709 361.147 167.577C360.367 167.446 359.692 167.256 359.178 167.023C358.664 166.79 358.327 166.52 358.192 166.235C358.058 165.951 358.131 165.66 358.405 165.386C359.514 164.267 361.39 163.134 364.455 162.962C370.99 162.604 388.939 164.386 388.939 165.611C388.939 166.837 388.939 167.393 386.761 167.393H373.168L362.297 171.327L362.055 171.261C361.495 171.106 361.045 170.913 360.736 170.695C360.427 170.477 360.267 170.24 360.267 169.999C360.267 169.759 360.427 169.522 360.736 169.304C361.045 169.086 361.495 168.892 362.055 168.738C363.051 168.469 363.892 168.144 364.536 167.777Z" fill="#263238" stroke="#263238" stroke-linecap="round" stroke-linejoin="round"/>
<path d="M487.42 200.993H667.925C667.925 200.993 694.022 195.277 688.577 180.275C683.132 165.273 653.787 175.281 642.916 185.276H562.446C562.446 185.276 545.04 173.851 516.785 175.281C488.529 176.712 487.42 200.993 487.42 200.993Z" fill="#263238" stroke="#263238" stroke-linecap="round" stroke-linejoin="round"/>
<path d="M531.77 198.019C532.026 194.046 528.539 190.144 521.787 186.846V182.673H500.025C482.479 182.673 468.26 189.541 468.26 198.019C468.26 206.497 482.479 213.379 500.025 213.379H521.787V209.206C528.547 205.904 532.034 201.997 531.77 198.019Z" fill="#263238" stroke="#263238" stroke-linecap="round" stroke-linejoin="round"/>
<path d="M521.787 213.366C539.319 213.366 553.531 206.495 553.531 198.019C553.531 189.544 539.319 182.673 521.787 182.673C504.255 182.673 490.042 189.544 490.042 198.019C490.042 206.495 504.255 213.366 521.787 213.366Z" fill="#263238"/>
<mask id="mask0_14_115" style="mask-type:luminance" maskUnits="userSpaceOnUse" x="490" y="182" width="64" height="32">
<path d="M521.787 213.366C539.319 213.366 553.531 206.495 553.531 198.019C553.531 189.544 539.319 182.673 521.787 182.673C504.255 182.673 490.042 189.544 490.042 198.019C490.042 206.495 504.255 213.366 521.787 213.366Z" fill="white"/>
</mask>
<g mask="url(#mask0_14_115)">
<path opacity="0.2" d="M521.787 213.366C539.319 213.366 553.531 206.495 553.531 198.019C553.531 189.544 539.319 182.673 521.787 182.673C504.255 182.673 490.042 189.544 490.042 198.019C490.042 206.495 504.255 213.366 521.787 213.366Z" fill="white" stroke="#263238" stroke-linecap="round" stroke-linejoin="round"/>
</g>
<path d="M521.787 213.366C539.319 213.366 553.531 206.495 553.531 198.019C553.531 189.544 539.319 182.673 521.787 182.673C504.255 182.673 490.042 189.544 490.042 198.019C490.042 206.495 504.255 213.366 521.787 213.366Z" stroke="#263238" stroke-linecap="round" stroke-linejoin="round"/>
<path d="M335.615 182.673H315.063C298.485 182.673 285.053 189.541 285.053 198.019C285.053 206.497 298.485 213.379 315.063 213.379H335.615C352.193 213.379 365.625 206.51 365.625 198.033C365.625 189.555 352.193 182.673 335.615 182.673Z" fill="#263238" stroke="#263238" stroke-linecap="round" stroke-linejoin="round"/>
<path d="M521.787 210.266C535.777 210.266 547.118 204.783 547.118 198.019C547.118 191.256 535.777 185.773 521.787 185.773C507.797 185.773 496.455 191.256 496.455 198.019C496.455 204.783 507.797 210.266 521.787 210.266Z" fill="white" stroke="#263238" stroke-linecap="round" stroke-linejoin="round"/>
<path d="M680.469 198.019C680.716 194.191 678.553 190.387 674.117 186.846V182.673H654.896C643.723 182.673 634.728 189.541 634.728 198.019C634.728 206.497 643.763 213.366 654.896 213.366H674.117V209.193C678.553 205.652 680.716 201.848 680.469 198.019Z" fill="#263238" stroke="#263238" stroke-linecap="round" stroke-linejoin="round"/>
<path d="M674.117 213.366C685.277 213.366 694.325 206.495 694.325 198.019C694.325 189.544 685.277 182.673 674.117 182.673C662.956 182.673 653.908 189.544 653.908 198.019C653.908 206.495 662.956 213.366 674.117 213.366Z" fill="#263238"/>
<mask id="mask1_14_115" style="mask-type:luminance" maskUnits="userSpaceOnUse" x="653" y="182" width="42" height="32">
<path d="M674.117 213.366C685.277 213.366 694.325 206.495 694.325 198.019C694.325 189.544 685.277 182.673 674.117 182.673C662.956 182.673 653.908 189.544 653.908 198.019C653.908 206.495 662.956 213.366 674.117 213.366Z" fill="white"/>
</mask>
<g mask="url(#mask1_14_115)">
<path opacity="0.2" d="M674.117 213.366C685.277 213.366 694.325 206.495 694.325 198.019C694.325 189.544 685.277 182.673 674.117 182.673C662.956 182.673 653.908 189.544 653.908 198.019C653.908 206.495 662.956 213.366 674.117 213.366Z" fill="white" stroke="#263238" stroke-linecap="round" stroke-linejoin="round"/>
</g>
<path d="M674.117 213.366C685.277 213.366 694.325 206.495 694.325 198.019C694.325 189.544 685.277 182.673 674.117 182.673C662.956 182.673 653.908 189.544 653.908 198.019C653.908 206.495 662.956 213.366 674.117 213.366Z" stroke="#263238" stroke-linecap="round" stroke-linejoin="round"/>
<path d="M690.231 198.019C690.231 204.782 683.011 210.266 674.096 210.266C665.182 210.266 657.962 204.782 657.962 198.019C657.962 191.257 665.182 185.773 674.096 185.773C683.011 185.773 690.231 191.257 690.231 198.019Z" fill="white" stroke="#263238" stroke-linecap="round" stroke-linejoin="round"/>
<path d="M495.024 201.768C495.024 189.541 507.972 179.626 523.925 179.626C539.878 179.626 552.825 189.561 552.825 201.768C552.825 202.43 552.825 203.093 552.704 203.755H655.663C655.663 203.093 655.562 202.43 655.562 201.768C655.562 189.535 665.001 179.6 676.698 179.6C684.463 179.6 691.239 184.031 694.849 190.614V172.579C694.853 171.756 693.977 170.958 692.374 170.325C690.771 169.692 688.542 169.264 686.076 169.115L685.572 169.082C678.453 168.612 665.606 164.161 645.619 158.537C625.632 152.914 607.804 152.444 607.804 152.444H427.501C424.094 152.444 420.782 152.815 418.082 153.497L356.61 169.082C356.61 169.082 301.571 172.592 289.47 176.58C277.369 180.567 278.761 203.735 278.761 203.735H495.185C495.064 203.106 495.024 202.444 495.024 201.768Z" fill="white" stroke="#263238" stroke-linecap="round" stroke-linejoin="round"/>
<path d="M563.535 152.444H427.501C424.093 152.444 420.782 152.815 418.082 153.497L356.61 169.082H530.701L563.535 152.444Z" fill="white" stroke="#263238" stroke-linecap="round" stroke-linejoin="round"/>
<path d="M492.281 175.347C482.479 175.387 465.356 175.599 457.995 176.579C451.855 177.374 445.897 178.313 440.166 179.388H475.017L492.281 175.347Z" fill="#263238" stroke="#263238" stroke-linecap="round" stroke-linejoin="round"/>
<path d="M477.195 182.911V180.805H440.086L446.802 182.839C446.694 182.86 446.593 182.884 446.499 182.911H477.195Z" fill="#263238" stroke="#263238" stroke-linecap="round" stroke-linejoin="round"/>
<path d="M480.765 179.858V182.911C482.205 182.869 483.596 182.719 484.83 182.472C486.065 182.225 487.11 181.888 487.884 181.487C491.454 179.613 499.481 175.334 499.481 175.334L480.765 179.858Z" fill="#263238" stroke="#263238" stroke-linecap="round" stroke-linejoin="round"/>
<path d="M292.979 182.832L299.695 180.799H283.863C283.379 181.461 282.915 182.163 282.512 182.905H293.282C293.188 182.878 293.087 182.853 292.979 182.832Z" fill="#263238" stroke="#263238" stroke-linecap="round" stroke-linejoin="round"/>
<path d="M287.675 177.388C286.596 178.018 285.723 178.684 285.073 179.375H299.695C295.798 178.644 291.785 177.98 287.675 177.388Z" fill="#263238" stroke="#263238" stroke-linecap="round" stroke-linejoin="round"/>
<path d="M530.701 169.082H636.362C636.362 169.082 651.347 167.439 647.071 161.346C645.619 159.279 615.669 154.55 611.394 154.55H559.965L530.701 169.082Z" fill="#263238"/>
<mask id="mask2_14_115" style="mask-type:luminance" maskUnits="userSpaceOnUse" x="530" y="154" width="118" height="16">
<path d="M530.701 169.082H636.362C636.362 169.082 651.347 167.439 647.071 161.346C645.619 159.279 615.669 154.55 611.394 154.55H559.965L530.701 169.082Z" fill="white"/>
</mask>
<g mask="url(#mask2_14_115)">
<path opacity="0.2" d="M530.701 169.082H636.362C636.362 169.082 651.347 167.439 647.071 161.346C645.619 159.279 615.669 154.55 611.394 154.55H559.965L530.701 169.082Z" fill="white" stroke="#263238" stroke-linecap="round" stroke-linejoin="round"/>
</g>
<path d="M530.701 169.082H636.362C636.362 169.082 651.347 167.439 647.071 161.346C645.619 159.279 615.669 154.55 611.394 154.55H559.965L530.701 169.082Z" stroke="#263238" stroke-linecap="round" stroke-linejoin="round"/>
<path d="M413.927 154.55L356.589 169.082H530.701L559.36 154.55H413.927Z" fill="#263238" stroke="#263238" stroke-linecap="round" stroke-linejoin="round"/>
<path d="M302.378 179.858V184.779L313.067 187.356H399.406L419.393 184.547V179.858H302.378Z" fill="#263238" stroke="#263238" stroke-linecap="round" stroke-linejoin="round"/>
<path opacity="0.3" d="M306.371 179.858H302.378V181.169H306.371V179.858Z" fill="white" stroke="#263238" stroke-linecap="round" stroke-linejoin="round"/>
<path opacity="0.3" d="M310.768 181.309H306.774V182.62H310.768V181.309Z" fill="white" stroke="#263238" stroke-linecap="round" stroke-linejoin="round"/>
<path opacity="0.3" d="M315.184 182.759H311.191V184.071H315.184V182.759Z" fill="white" stroke="#263238" stroke-linecap="round" stroke-linejoin="round"/>
<path opacity="0.3" d="M319.601 184.203H315.608V185.514H319.601V184.203Z" fill="white" stroke="#263238" stroke-linecap="round" stroke-linejoin="round"/>
<path opacity="0.3" d="M418.607 179.858H414.613V181.169H418.607V179.858Z" fill="white" stroke="#263238" stroke-linecap="round" stroke-linejoin="round"/>
<path opacity="0.3" d="M414.19 181.309H410.196V182.62H414.19V181.309Z" fill="white" stroke="#263238" stroke-linecap="round" stroke-linejoin="round"/>
<path opacity="0.3" d="M409.773 182.759H405.78V184.071H409.773V182.759Z" fill="white" stroke="#263238" stroke-linecap="round" stroke-linejoin="round"/>
<path opacity="0.3" d="M405.376 184.203H401.383V185.514H405.376V184.203Z" fill="white" stroke="#263238" stroke-linecap="round" stroke-linejoin="round"/>
<path opacity="0.3" d="M325.732 184.203H321.739V185.514H325.732V184.203Z" fill="white" stroke="#263238" stroke-linecap="round" stroke-linejoin="round"/>
<path opacity="0.3" d="M331.843 184.203H327.85V185.514H331.843V184.203Z" fill="white" stroke="#263238" stroke-linecap="round" stroke-linejoin="round"/>
<path opacity="0.3" d="M337.974 184.203H333.981V185.514H337.974V184.203Z" fill="white" stroke="#263238" stroke-linecap="round" stroke-linejoin="round"/>
<path opacity="0.3" d="M344.105 184.203H340.112V185.514H344.105V184.203Z" fill="white" stroke="#263238" stroke-linecap="round" stroke-linejoin="round"/>
<path opacity="0.3" d="M350.237 184.203H346.243V185.514H350.237V184.203Z" fill="white" stroke="#263238" stroke-linecap="round" stroke-linejoin="round"/>
<path opacity="0.3" d="M356.348 184.203H352.354V185.514H356.348V184.203Z" fill="white" stroke="#263238" stroke-linecap="round" stroke-linejoin="round"/>
<path opacity="0.3" d="M362.479 184.203H358.485V185.514H362.479V184.203Z" fill="white" stroke="#263238" stroke-linecap="round" stroke-linejoin="round"/>
<path opacity="0.3" d="M368.61 184.203H364.616V185.514H368.61V184.203Z" fill="white" stroke="#263238" stroke-linecap="round" stroke-linejoin="round"/>
<path opacity="0.3" d="M374.741 184.203H370.748V185.514H374.741V184.203Z" fill="white" stroke="#263238" stroke-linecap="round" stroke-linejoin="round"/>
<path opacity="0.3" d="M380.872 184.203H376.879V185.514H380.872V184.203Z" fill="white" stroke="#263238" stroke-linecap="round" stroke-linejoin="round"/>
<path opacity="0.3" d="M386.983 184.203H382.99V185.514H386.983V184.203Z" fill="white" stroke="#263238" stroke-linecap="round" stroke-linejoin="round"/>
<path opacity="0.3" d="M393.114 184.203H389.121V185.514H393.114V184.203Z" fill="white" stroke="#263238" stroke-linecap="round" stroke-linejoin="round"/>
<path opacity="0.3" d="M399.245 184.203H395.252V185.514H399.245V184.203Z" fill="white" stroke="#263238" stroke-linecap="round" stroke-linejoin="round"/>
<path d="M460.778 193.449H283.097L280.717 187.197C279.628 190.634 279.144 194.297 278.922 197.304L279.547 198.138L283.097 195.794H298.344L288.825 198.37H430.001L424.939 195.794H460.677L470.66 197.668H477.8V185.746L460.778 193.449Z" fill="#263238" stroke="#263238" stroke-linecap="round" stroke-linejoin="round"/>
<path d="M600.321 169.082H606.271C605.646 166.207 603.145 159.875 593.343 154.55H587.293C590.822 157.001 598.97 163.313 600.321 169.082Z" fill="#263238" stroke="#263238" stroke-linecap="round" stroke-linejoin="round"/>
<path d="M471.649 158.498L473.827 160.485C471.147 161.326 469.582 162.48 469.471 163.697V169.108H456.099L467.292 158.511L471.649 158.498ZM409.128 161.147C399.951 162.982 386.075 167.029 379.359 169.055H424.052L447.185 157.398L431.958 157.756C423.926 158.563 416.25 159.712 409.128 161.174V161.147ZM501.558 159.73L496.113 159.372H488.509L486.331 160.087C486.331 160.087 491.776 160.266 492.382 161.339C492.756 162.405 492.938 163.478 492.926 164.551H496.738C496.738 164.551 496.738 162.564 499.461 161.697C500.999 161.186 502.636 160.708 504.361 160.266L501.558 159.73Z" fill="#525252" stroke="#263238" stroke-linecap="round" stroke-linejoin="round"/>
<path d="M567.891 167.777H567.004C566.127 167.777 565.263 167.709 564.482 167.577C563.702 167.446 563.027 167.256 562.513 167.023C562 166.79 561.662 166.52 561.527 166.235C561.393 165.951 561.466 165.66 561.74 165.386C562.849 164.267 564.725 163.134 567.891 162.962C574.405 162.604 592.355 164.386 592.355 165.611C592.355 166.837 592.355 167.393 590.177 167.393H576.583L565.773 171.354L565.531 171.288C564.971 171.133 564.521 170.94 564.212 170.722C563.903 170.504 563.743 170.266 563.743 170.026C563.743 169.786 563.903 169.548 564.212 169.33C564.521 169.112 564.971 168.919 565.531 168.764C566.481 168.481 567.278 168.147 567.891 167.777Z" fill="white" stroke="#263238" stroke-linecap="round" stroke-linejoin="round"/>
<path d="M565.471 171.287L565.713 171.353L576.583 167.419H590.177C591.972 167.419 592.194 167.048 592.335 166.214H561.538C561.719 166.647 562.372 167.045 563.377 167.332C564.382 167.62 565.671 167.778 567.004 167.777H567.891C567.26 168.148 566.442 168.482 565.471 168.764C564.911 168.919 564.461 169.112 564.152 169.33C563.843 169.548 563.683 169.785 563.683 170.025C563.683 170.266 563.843 170.503 564.152 170.721C564.461 170.939 564.911 171.132 565.471 171.287Z" fill="#263238" stroke="#263238" stroke-linecap="round" stroke-linejoin="round"/>
<path d="M599.051 173.393H586.809V174.254H599.051V173.393Z" fill="#263238" stroke="#263238" stroke-linecap="round" stroke-linejoin="round"/>
<path d="M654.11 173.393H641.868V174.254H654.11V173.393Z" fill="#263238" stroke="#263238" stroke-linecap="round" stroke-linejoin="round"/>
<path d="M654.977 169.949C654.977 169.949 663.831 171.936 668.974 178.851C668.974 178.851 647.111 179.712 647.111 199.516" stroke="#263238" stroke-linecap="round" stroke-linejoin="round"/>
<path d="M644.429 200.377H552.765C552.765 200.819 552.765 201.283 552.765 201.768C552.765 202.431 552.765 203.093 552.644 203.755H655.602C655.602 203.093 655.501 202.431 655.501 201.768C655.501 201.722 655.501 201.676 655.501 201.629L644.429 200.377Z" fill="#263238" stroke="#263238" stroke-linecap="round" stroke-linejoin="round"/>
<path d="M495.024 201.768C495.024 201.305 495.024 200.841 495.024 200.377H278.781C278.781 202.444 278.781 203.762 278.781 203.762H495.185C495.064 203.106 495.024 202.444 495.024 201.768Z" fill="#263238" stroke="#263238" stroke-linecap="round" stroke-linejoin="round"/>
<path d="M690.977 171.652C689.889 171.652 688.819 171.745 687.873 171.922C686.928 172.098 686.138 172.353 685.583 172.66C685.027 172.968 684.725 173.317 684.705 173.675C684.686 174.032 684.95 174.385 685.471 174.698L694.809 180.322V172.579C694.798 172.272 694.662 171.967 694.406 171.672H690.977V171.652Z" fill="#263238" stroke="#263238" stroke-linecap="round" stroke-linejoin="round"/>
<path d="M607.037 172.063C607.037 172.063 626.6 181.335 607.037 197.059" stroke="#263238" stroke-linecap="round" stroke-linejoin="round"/>
<path d="M1304.96 39.602H1151.98V213.366H1304.96V39.602Z" fill="#666666" stroke="#263238" stroke-miterlimit="10"/>
<path d="M1293.72 39.6018H1140.75V213.366H1293.72V39.6018Z" fill="#919191" stroke="#263238" stroke-miterlimit="10"/>
<path d="M1293.72 39.6018H1140.75V165.525H1293.72V39.6018Z" fill="white" stroke="#263238" stroke-linecap="round" stroke-linejoin="round"/>
<path d="M1293.72 87.7536H1140.75V117.3H1293.72V87.7536Z" fill="#263238" stroke="#263238" stroke-miterlimit="10"/>
<path d="M1272.67 123.03H1157.59V129.024H1272.67V123.03Z" fill="white" stroke="#263238" stroke-linecap="round" stroke-linejoin="round"/>
<path d="M1272.67 137.548H1157.59V143.543H1272.67V137.548Z" fill="white" stroke="#263238" stroke-linecap="round" stroke-linejoin="round"/>
<path d="M1272.67 94.6822H1157.59V100.676H1272.67V94.6822Z" fill="#8F8F8F" stroke="#263238" stroke-linecap="round" stroke-linejoin="round"/>
<path d="M1272.67 105.286H1157.59V111.28H1272.67V105.286Z" fill="#8F8F8F" stroke="#263238" stroke-linecap="round" stroke-linejoin="round"/>
<path d="M0.359985 213.365H1413.48" stroke="#263238" stroke-miterlimit="10"/>
</g>
</svg>
