<svg width="239" height="239" viewBox="0 0 239 239" fill="none" xmlns="http://www.w3.org/2000/svg">
<g clip-path="url(#clip0_2_16)">
<path d="M119.5 239C185.498 239 239 185.498 239 119.5C239 53.502 185.498 0 119.5 0C53.502 0 0 53.502 0 119.5C0 185.498 53.502 239 119.5 239Z" fill="#2D598A"/>
<path d="M125.88 83.6455C124.993 85.6179 123.957 87.6396 122.774 89.7106C121.59 91.6829 120.407 93.8032 119.223 96.0715C116.166 102.284 113.799 106.229 112.123 107.906C111.728 108.793 111.087 109.977 110.2 111.456C109.411 112.837 108.573 114.809 107.685 117.373C110.348 120.726 112.369 123.931 113.75 126.988C115.229 129.947 116.363 131.969 117.152 133.053C117.448 133.349 117.991 133.842 118.78 134.533C119.667 135.124 120.604 135.815 121.59 136.604C122.576 137.294 123.563 138.083 124.549 138.971C125.535 139.858 126.373 140.746 127.064 141.633C128.444 143.31 129.677 144.937 130.762 146.515C131.945 148.093 133.079 149.03 134.164 149.326C134.164 150.41 134.213 151.249 134.312 151.84C134.509 152.333 134.657 152.679 134.756 152.876C134.854 152.974 135.446 153.024 136.531 153.024V156.278C134.46 157.659 132.537 159.04 130.762 160.42C128.987 161.702 127.507 162.787 126.324 163.675L120.998 165.006C120.801 164.71 120.111 164.168 118.928 163.379C117.843 162.59 116.61 161.752 115.229 160.864C113.849 159.976 112.567 159.138 111.383 158.349C110.2 157.56 109.46 156.969 109.164 156.574C108.079 154.996 107.143 153.763 106.354 152.876C105.663 151.988 105.121 151.298 104.726 150.805C104.431 150.608 103.987 150.213 103.395 149.621C102.902 149.227 102.31 148.734 101.62 148.142C100.93 147.55 100.091 146.761 99.1051 145.775C98.0203 144.888 97.1328 144 96.4424 143.113C95.8507 142.225 95.259 141.337 94.6673 140.45C94.1742 139.464 93.6318 138.478 93.0401 137.491C92.547 136.505 91.8567 135.519 90.9691 134.533C89.0953 137.59 87.5668 140.351 86.3833 142.817C85.2985 145.184 84.3616 146.959 83.5727 148.142C81.8962 151.298 80.8114 152.974 80.3183 153.172C80.0224 153.27 79.3814 153.27 78.3952 153.172C77.7049 153.961 76.9652 155.045 76.1763 156.426C75.3873 157.807 74.4012 159.483 73.2177 161.456C72.626 162.54 72.0836 163.527 71.5905 164.414C71.1961 165.203 70.9002 165.844 70.703 166.337L66.1172 166.781L63.1586 166.189L58.7208 160.716C59.6084 158.645 60.2987 156.821 60.7918 155.243C61.2849 153.566 62.1231 152.481 63.3066 151.988C65.3775 149.917 67.7937 146.071 70.555 140.45C71.2454 138.971 71.7385 137.738 72.0343 136.752C72.4288 135.765 72.7246 134.927 72.9219 134.237C73.2177 133.547 73.4643 132.955 73.6615 132.462C73.9574 131.87 74.3518 131.278 74.8449 130.687C77.8035 131.278 79.9731 131.574 81.3538 131.574C82.0441 131.574 82.5865 131.081 82.981 130.095C83.3755 129.01 83.5727 127.827 83.5727 126.545C83.6713 125.164 83.5727 123.931 83.2768 122.846C82.981 121.663 82.5865 120.973 82.0934 120.775L76.9159 120.332C76.5215 118.951 75.8804 117.274 74.9929 115.302C74.2039 113.231 73.1684 111.604 71.8864 110.42C71.2947 109.829 70.703 109.385 70.1112 109.089C69.6182 108.793 69.1744 108.547 68.7799 108.349C68.3854 108.054 68.0403 107.758 67.7444 107.462C67.4485 107.067 67.202 106.476 67.0048 105.687L62.8628 101.989C63.2572 100.904 63.3559 99.7697 63.1586 98.5862C63.06 97.4028 62.5176 96.5152 61.5314 95.9235C61.0383 95.6277 60.5945 95.4304 60.2001 95.3318C59.8056 95.2332 59.4604 95.1346 59.1646 95.036H58.277C57.9811 94.7401 57.4881 93.8032 56.7977 92.2253C56.1074 90.5488 54.776 87.9847 52.8037 84.5331L54.2829 80.8349L72.9219 75.3615L77.2118 76.8408C77.2118 77.1367 77.1132 77.3832 76.9159 77.5805C76.4228 77.7777 76.7187 78.5173 77.8035 79.7994C78.2966 80.0952 78.6911 80.3911 78.9869 80.687C79.3814 80.9828 79.7759 81.2293 80.1704 81.4266C80.7621 81.9197 81.3538 82.4128 81.9455 82.9059C82.5372 83.399 82.981 83.7934 83.2768 84.0893C83.3755 84.2865 83.4741 84.4838 83.5727 84.681C83.6713 84.7796 83.7206 84.9769 83.7206 85.2727C83.8192 85.47 83.9179 85.8644 84.0165 86.4561C84.1151 87.0479 84.2137 87.8861 84.3123 88.9709C84.3123 89.5626 84.7068 90.4995 85.4958 91.7816C86.3833 92.965 87.4188 94.2963 88.6023 95.7756C89.7857 97.2549 90.9691 98.7835 92.1525 100.361C93.336 101.841 94.2728 103.123 94.9632 104.208C97.1328 105.194 98.4148 105.983 98.8093 106.574C99.6969 105.095 100.584 103.566 101.472 101.989C102.458 100.312 103.296 98.7342 103.987 97.2549C104.776 95.7756 105.417 94.4443 105.91 93.2608C106.403 91.9788 106.649 90.9433 106.649 90.1543C106.649 88.5764 106.995 87.4916 107.685 86.8999C108.474 86.3082 108.868 85.8151 108.868 85.4206C108.868 85.2234 109.411 84.3851 110.496 82.9059C111.58 81.328 112.369 79.5035 112.862 77.4325L117.152 74.7698H122.478C123.365 74.9671 124.45 75.5095 125.732 76.397C127.014 77.2846 127.803 78.2215 128.099 79.2077L125.88 83.6455ZM185.12 71.9592V83.4976C183.936 88.1327 182.95 92.2253 182.161 95.7756C181.471 99.2273 180.928 102.432 180.534 105.391C180.139 108.349 179.893 111.16 179.794 113.823C179.794 116.486 179.893 119.296 180.09 122.255C180.287 125.805 180.189 129.01 179.794 131.87C179.4 134.73 179.005 137.343 178.611 139.71C178.315 142.077 178.118 144.345 178.019 146.515C177.92 148.586 178.216 150.706 178.907 152.876L179.646 156.574L177.131 160.864L157.457 164.71L152.132 161.308C152.23 160.913 152.773 160.371 153.759 159.681C154.844 158.892 155.386 158.103 155.386 157.314C155.386 156.13 155.386 155.292 155.386 154.799C155.386 154.306 155.287 153.517 155.09 152.432C154.893 151.939 155.139 150.361 155.83 147.698C156.619 144.937 156.964 141.19 156.865 136.456C156.865 134.089 156.865 132.363 156.865 131.278C156.964 130.095 157.013 129.355 157.013 129.059C157.112 128.665 157.112 128.517 157.013 128.616C157.013 128.714 156.915 128.764 156.717 128.764C156.816 127.975 156.964 127.087 157.161 126.101C157.358 125.016 157.556 123.931 157.753 122.846C157.95 122.255 158.098 121.663 158.197 121.071C158.295 120.48 158.394 119.839 158.492 119.148C158.788 118.852 158.739 118.261 158.345 117.373C158.049 116.486 157.704 115.795 157.309 115.302C157.013 114.809 156.865 114.612 156.865 114.71C156.865 114.71 156.964 114.71 157.161 114.71C157.358 114.71 157.654 114.513 158.049 114.119C158.443 113.626 158.838 112.689 159.232 111.308L158.197 104.799C158.394 104.799 158.542 104.849 158.64 104.947C158.838 105.046 158.936 104.996 158.936 104.799C158.936 104.503 158.887 103.961 158.788 103.172C158.69 102.383 158.492 101.15 158.197 99.4738C157.802 96.2194 157.753 94.2963 158.049 93.7046C158.345 93.0143 158.788 92.7184 159.38 92.817C159.873 92.4226 160.268 92.0281 160.563 91.6336C160.958 91.2392 161.204 90.7461 161.303 90.1543C161.402 89.5626 161.352 88.7737 161.155 87.7875C161.057 86.7027 160.761 85.322 160.268 83.6455C159.775 82.1662 159.824 80.6869 160.416 79.2077C161.007 77.7284 161.352 76.2491 161.451 74.7698L164.558 71.6633C165.938 71.6633 167.763 71.6633 170.031 71.6633C172.299 71.5647 174.271 71.4661 175.948 71.3675C179.498 71.0716 182.062 70.9237 183.64 70.9237L185.12 71.9592Z" fill="white"/>
</g>
<defs>
<clipPath id="clip0_2_16">
<rect width="239" height="239" fill="white"/>
</clipPath>
</defs>
</svg>
